<?xml version="1.0" encoding="UTF-8" standalone="no"?>
<!-- Created with matplotlib (https://matplotlib.org/) -->

<svg
   xmlns:dc="http://purl.org/dc/elements/1.1/"
   xmlns:cc="http://creativecommons.org/ns#"
   xmlns:rdf="http://www.w3.org/1999/02/22-rdf-syntax-ns#"
   xmlns:svg="http://www.w3.org/2000/svg"
   xmlns="http://www.w3.org/2000/svg"
   xmlns:xlink="http://www.w3.org/1999/xlink"
   xmlns:sodipodi="http://sodipodi.sourceforge.net/DTD/sodipodi-0.dtd"
   xmlns:inkscape="http://www.inkscape.org/namespaces/inkscape"
   height="143.23645pt"
   version="1.1"
   viewBox="0 0 255.15541 143.23645"
   width="255.15541pt"
   id="svg157"
   sodipodi:docname="CPB_spectrum.svg"
   inkscape:version="0.92.1 r15371">
  <metadata
     id="metadata161">
    <rdf:RDF>
      <cc:Work
         rdf:about="">
        <dc:format>image/svg+xml</dc:format>
        <dc:type
           rdf:resource="http://purl.org/dc/dcmitype/StillImage" />
        <dc:title></dc:title>
      </cc:Work>
    </rdf:RDF>
  </metadata>
  <sodipodi:namedview
     pagecolor="#ffffff"
     bordercolor="#666666"
     borderopacity="1"
     objecttolerance="10"
     gridtolerance="10"
     guidetolerance="10"
     inkscape:pageopacity="0"
     inkscape:pageshadow="2"
     inkscape:window-width="1920"
     inkscape:window-height="1017"
     id="namedview159"
     showgrid="false"
     inkscape:zoom="0.78385417"
     inkscape:cx="171.19389"
     inkscape:cy="97.328601"
     inkscape:window-x="-8"
     inkscape:window-y="-8"
     inkscape:window-maximized="1"
     inkscape:current-layer="figure_1"
     fit-margin-top="0"
     fit-margin-left="0"
     fit-margin-right="0"
     fit-margin-bottom="0" />
  <defs
     id="defs4"
     style="stroke-linecap:butt;stroke-linejoin:round">
    <style
       type="text/css"
       id="style2">
*{stroke-linecap:butt;stroke-linejoin:round;}
  </style>
  </defs>
  <g
     id="figure_1"
     style="stroke-linecap:butt;stroke-linejoin:round"
     transform="translate(-15.604585,-19.76)">
    <g
       id="axes_1"
       style="stroke-linecap:butt;stroke-linejoin:round">
      <g
         id="patch_2"
         style="stroke-linecap:butt;stroke-linejoin:round">
        <path
           d="M 52.736977,127.96 H 270.36 V 20.16 H 52.736977 Z"
           style="fill:#ffffff;stroke-linecap:butt;stroke-linejoin:round"
           id="path9"
           inkscape:connector-curvature="0" />
      </g>
      <g
         id="matplotlib.axis_1"
         style="stroke-linecap:butt;stroke-linejoin:round">
        <g
           id="xtick_1"
           style="stroke-linecap:butt;stroke-linejoin:round">
          <g
             id="line2d_1"
             style="stroke-linecap:butt;stroke-linejoin:round">
            <defs
               id="defs13">
              <path
                 d="M 0,0 V 3.5"
                 id="m1d5684529a"
                 style="stroke:#000000;stroke-width:0.80000001;stroke-linecap:butt;stroke-linejoin:round"
                 inkscape:connector-curvature="0" />
            </defs>
            <g
               id="g17"
               style="stroke-linecap:butt;stroke-linejoin:round">
              <use
                 style="stroke:#000000;stroke-width:0.80000001;stroke-linecap:butt;stroke-linejoin:round"
                 x="89.007484"
                 xlink:href="#m1d5684529a"
                 y="127.96"
                 id="use15"
                 width="100%"
                 height="100%" />
            </g>
          </g>
          <g
             id="text_1"
             style="stroke-linecap:butt;stroke-linejoin:round">
            <!-- $-1$ -->
            <defs
               id="defs22">
              <path
                 d="m 65.90625,23 c 1.6875,0 3.5,0 3.5,2 0,2 -1.8125,2 -3.5,2 H 11.796875 c -1.703125,0 -3.5,0 -3.5,-2 0,-2 1.796875,-2 3.5,-2 z"
                 id="CMSY10-0"
                 inkscape:connector-curvature="0"
                 style="stroke-linecap:butt;stroke-linejoin:round" />
              <path
                 d="M 26.59375,63.796875 C 26.59375,65.890625 26.5,66 25.09375,66 21.203125,61.359375 15.296875,59.890625 9.703125,59.6875 c -0.296875,0 -0.796875,0 -0.90625,-0.1875 C 8.703125,59.296875 8.703125,59.09375 8.703125,57 11.796875,57 17,57.59375 21,59.984375 v -52.6875 c 0,-3.5 -0.203125,-4.703125 -8.796875,-4.703125 h -3 V 0 C 14,0.09375 19,0.1875 23.796875,0.1875 28.59375,0.1875 33.59375,0.09375 38.40625,0 v 2.59375 h -3 c -8.609375,0 -8.8125,1.09375 -8.8125,4.703125 z"
                 id="CMR17-49"
                 inkscape:connector-curvature="0"
                 style="stroke-linecap:butt;stroke-linejoin:round" />
            </defs>
            <g
               transform="matrix(0.14,0,0,-0.14,80.169119,144.64588)"
               id="g28"
               style="stroke-linecap:butt;stroke-linejoin:round">
              <use
                 transform="scale(0.996264)"
                 xlink:href="#CMSY10-0"
                 id="use24"
                 style="stroke-linecap:butt;stroke-linejoin:round"
                 x="0"
                 y="0"
                 width="100%"
                 height="100%" />
              <use
                 transform="matrix(0.996264,0,0,0.996264,77.487468,0)"
                 xlink:href="#CMR17-49"
                 id="use26"
                 style="stroke-linecap:butt;stroke-linejoin:round"
                 x="0"
                 y="0"
                 width="100%"
                 height="100%" />
            </g>
          </g>
        </g>
        <g
           id="xtick_2"
           style="stroke-linecap:butt;stroke-linejoin:round">
          <g
             id="line2d_2"
             style="stroke-linecap:butt;stroke-linejoin:round">
            <g
               id="g34"
               style="stroke-linecap:butt;stroke-linejoin:round">
              <use
                 style="stroke:#000000;stroke-width:0.80000001;stroke-linecap:butt;stroke-linejoin:round"
                 x="161.54849"
                 xlink:href="#m1d5684529a"
                 y="127.96"
                 id="use32"
                 width="100%"
                 height="100%" />
            </g>
          </g>
          <g
             id="text_2"
             style="stroke-linecap:butt;stroke-linejoin:round">
            <!-- $0$ -->
            <defs
               id="defs38">
              <path
                 d="m 42,31.84375 c 0,6.125 -0.09375,16.578125 -4.296875,24.609375 C 34,63.484375 28.09375,66 22.90625,66 18.09375,66 12,63.78125 8.203125,56.5625 4.203125,49.015625 3.796875,39.671875 3.796875,31.84375 3.796875,26.109375 3.90625,17.375 7,9.734375 11.296875,-0.609375 19,-2 22.90625,-2 27.5,-2 34.5,-0.109375 38.59375,9.4375 41.59375,16.375 42,24.5 42,31.84375 Z m -19.09375,-32.25 C 16.5,-0.40625 12.703125,5.125 11.296875,12.75 c -1.09375,5.9375 -1.09375,14.578125 -1.09375,20.203125 0,7.734375 0,14.15625 1.296875,20.28125 1.90625,8.546875 7.5,11.15625 11.40625,11.15625 4.09375,0 9.390625,-2.71875 11.296875,-10.953125 C 35.5,47.71875 35.59375,40.984375 35.59375,32.953125 c 0,-6.53125 0,-14.578125 -1.1875,-20.5 -2.109375,-10.953125 -8,-12.859375 -11.5,-12.859375 z"
                 id="CMR17-48"
                 inkscape:connector-curvature="0"
                 style="stroke-linecap:butt;stroke-linejoin:round" />
            </defs>
            <g
               transform="matrix(0.14,0,0,-0.14,158.13424,144.64588)"
               id="g42"
               style="stroke-linecap:butt;stroke-linejoin:round">
              <use
                 transform="scale(0.996264)"
                 xlink:href="#CMR17-48"
                 id="use40"
                 style="stroke-linecap:butt;stroke-linejoin:round"
                 x="0"
                 y="0"
                 width="100%"
                 height="100%" />
            </g>
          </g>
        </g>
        <g
           id="xtick_3"
           style="stroke-linecap:butt;stroke-linejoin:round">
          <g
             id="line2d_3"
             style="stroke-linecap:butt;stroke-linejoin:round">
            <g
               id="g48"
               style="stroke-linecap:butt;stroke-linejoin:round">
              <use
                 style="stroke:#000000;stroke-width:0.80000001;stroke-linecap:butt;stroke-linejoin:round"
                 x="234.08949"
                 xlink:href="#m1d5684529a"
                 y="127.96"
                 id="use46"
                 width="100%"
                 height="100%" />
            </g>
          </g>
          <g
             id="text_3"
             style="stroke-linecap:butt;stroke-linejoin:round">
            <!-- $1$ -->
            <g
               transform="matrix(0.14,0,0,-0.14,230.67525,144.64588)"
               id="g53"
               style="stroke-linecap:butt;stroke-linejoin:round">
              <use
                 transform="scale(0.996264)"
                 xlink:href="#CMR17-49"
                 id="use51"
                 style="stroke-linecap:butt;stroke-linejoin:round"
                 x="0"
                 y="0"
                 width="100%"
                 height="100%" />
            </g>
          </g>
        </g>
        <g
           id="text_4"
           style="stroke-linecap:butt;stroke-linejoin:round">
          <!-- $n_g$ -->
          <defs
             id="defs59">
            <path
               d="M 20.59375,29.21875 C 20.796875,29.828125 23.296875,34.8125 27,38 c 2.59375,2.390625 6,3.984375 9.90625,3.984375 4,0 5.390625,-2.984375 5.390625,-6.96875 0,-5.6875 -4.09375,-17.0625 -6.09375,-22.453125 C 35.296875,10.171875 34.796875,8.875 34.796875,7.078125 34.796875,2.59375 37.90625,-1 42.703125,-1 52,-1 55.5,13.65625 55.5,14.265625 c 0,0.5 -0.40625,0.890625 -1,0.890625 -0.90625,0 -1,-0.296875 -1.5,-2 C 50.703125,4.984375 46.90625,1 43,1 c -1,0 -2.59375,0.09375 -2.59375,3.28125 0,2.5 1.09375,5.484375 1.6875,6.890625 2,5.484375 6.203125,16.65625 6.203125,22.34375 C 48.296875,39.5 44.796875,44 37.203125,44 28.296875,44 23.59375,37.703125 21.796875,35.203125 21.5,40.890625 17.40625,44 13,44 9.796875,44 7.59375,42.09375 5.90625,38.703125 4.09375,35.109375 2.703125,29.125 2.703125,28.71875 c 0,-0.390625 0.390625,-0.890625 1.09375,-0.890625 0.796875,0 0.90625,0.09375 1.5,2.390625 1.609375,6.09375 3.40625,11.765625 7.40625,11.765625 2.296875,0 3.09375,-1.59375 3.09375,-4.578125 0,-2.203125 -1,-6.09375 -1.703125,-9.171875 l -2.796875,-10.78125 c -0.390625,-1.890625 -1.5,-6.390625 -2,-8.1875 C 8.59375,6.671875 7.5,1.984375 7.5,1.484375 7.5,0.09375 8.59375,-1 10.09375,-1 c 1.203125,0 2.609375,0.59375 3.40625,2.09375 0.203125,0.5 1.09375,3.984375 1.59375,5.984375 l 2.203125,8.984375 z"
               id="CMMI12-110"
               inkscape:connector-curvature="0"
               style="stroke-linecap:butt;stroke-linejoin:round" />
            <path
               d="m 33.796875,12.671875 c -0.390625,-1.609375 -0.59375,-2 -1.890625,-3.5 C 27.796875,3.890625 23.59375,2 20.5,2 c -3.296875,0 -6.40625,2.578125 -6.40625,9.46875 0,5.28125 3,16.453125 5.203125,20.953125 2.90625,5.578125 7.40625,9.5625 11.609375,9.5625 6.59375,0 7.890625,-8.171875 7.890625,-8.765625 L 38.5,31.8125 Z M 40,37.40625 C 38.703125,40.296875 35.90625,44 30.90625,44 20,44 7.59375,30.328125 7.59375,15.453125 7.59375,5.078125 13.90625,0 20.296875,0 c 5.296875,0 10,4.1875 11.796875,6.1875 L 29.90625,-2.75 c -1.40625,-5.375 -2,-7.828125 -5.609375,-11.25 -4.09375,-4 -7.890625,-4 -10.09375,-4 -3,0 -5.5,0.1875 -8,0.96875 3.203125,0.875 4,3.625 4,4.703125 0,1.5625 -1.203125,3.125 -3.40625,3.125 -2.390625,0 -5,-1.953125 -5,-5.1875 C 1.796875,-18.40625 5.90625,-20 14.40625,-20 27.296875,-20 34,-11.84375 35.296875,-6.5625 L 46.40625,37.90625 c 0.296875,1.1875 0.296875,1.390625 0.296875,1.59375 0,1.390625 -1.109375,2.5 -2.609375,2.5 C 41.703125,42 40.296875,40 40,37.3125 Z"
               id="CMMI12-103"
               inkscape:connector-curvature="0"
               style="stroke-linecap:butt;stroke-linejoin:round" />
          </defs>
          <g
             transform="matrix(0.14,0,0,-0.14,155.07999,161.04378)"
             id="g65"
             style="stroke-linecap:butt;stroke-linejoin:round">
            <use
               transform="matrix(0.996264,0,0,0.996264,0,14.943915)"
               xlink:href="#CMMI12-110"
               id="use61"
               style="stroke-linecap:butt;stroke-linejoin:round"
               x="0"
               y="0"
               width="100%"
               height="100%" />
            <use
               transform="matrix(0.697382,0,0,0.697382,58.230047,0)"
               xlink:href="#CMMI12-103"
               id="use63"
               style="stroke-linecap:butt;stroke-linejoin:round"
               x="0"
               y="0"
               width="100%"
               height="100%" />
          </g>
        </g>
      </g>
      <g
         id="matplotlib.axis_2"
         style="stroke-linecap:butt;stroke-linejoin:round">
        <g
           id="ytick_1"
           style="stroke-linecap:butt;stroke-linejoin:round">
          <g
             id="line2d_4"
             style="stroke-linecap:butt;stroke-linejoin:round">
            <defs
               id="defs70">
              <path
                 d="M 0,0 H -3.5"
                 id="m38032f6a49"
                 style="stroke:#000000;stroke-width:0.80000001;stroke-linecap:butt;stroke-linejoin:round"
                 inkscape:connector-curvature="0" />
            </defs>
            <g
               id="g74"
               style="stroke-linecap:butt;stroke-linejoin:round">
              <use
                 style="stroke:#000000;stroke-width:0.80000001;stroke-linecap:butt;stroke-linejoin:round"
                 x="52.736977"
                 xlink:href="#m38032f6a49"
                 y="124.48258"
                 id="use72"
                 width="100%"
                 height="100%" />
            </g>
          </g>
          <g
             id="text_5"
             style="stroke-linecap:butt;stroke-linejoin:round">
            <!-- $0$ -->
            <g
               transform="matrix(0.14,0,0,-0.14,38.908489,129.32552)"
               id="g79"
               style="stroke-linecap:butt;stroke-linejoin:round">
              <use
                 transform="scale(0.996264)"
                 xlink:href="#CMR17-48"
                 id="use77"
                 style="stroke-linecap:butt;stroke-linejoin:round"
                 x="0"
                 y="0"
                 width="100%"
                 height="100%" />
            </g>
          </g>
        </g>
        <g
           id="ytick_2"
           style="stroke-linecap:butt;stroke-linejoin:round">
          <g
             id="line2d_5"
             style="stroke-linecap:butt;stroke-linejoin:round">
            <g
               id="g85"
               style="stroke-linecap:butt;stroke-linejoin:round">
              <use
                 style="stroke:#000000;stroke-width:0.80000001;stroke-linecap:butt;stroke-linejoin:round"
                 x="52.736977"
                 xlink:href="#m38032f6a49"
                 y="54.934193"
                 id="use83"
                 width="100%"
                 height="100%" />
            </g>
          </g>
          <g
             id="text_6"
             style="stroke-linecap:butt;stroke-linejoin:round">
            <!-- $20$ -->
            <defs
               id="defs89">
              <path
                 d="M 41.703125,15.46875 H 39.90625 c -1,-7.078125 -1.8125,-8.28125 -2.203125,-8.875 C 37.203125,5.796875 30,5.796875 28.59375,5.796875 H 9.40625 C 13,9.6875 20,16.765625 28.5,24.9375 34.59375,30.71875 41.703125,37.5 41.703125,47.390625 41.703125,59.1875 32.296875,66 21.796875,66 c -11,0 -17.703125,-9.703125 -17.703125,-18.703125 0,-3.90625 2.90625,-4.40625 4.109375,-4.40625 1,0 4,0.59375 4,4.09375 C 12.203125,50.09375 9.59375,51 8.203125,51 7.59375,51 7,50.890625 6.59375,50.6875 c 1.90625,8.5 7.703125,12.703125 13.8125,12.703125 8.6875,0 14.390625,-6.890625 14.390625,-16 0,-8.6875 -5.09375,-16.171875 -10.796875,-22.65625 L 4.09375,2.296875 V 0 h 35.203125 z"
                 id="CMR17-50"
                 inkscape:connector-curvature="0"
                 style="stroke-linecap:butt;stroke-linejoin:round" />
            </defs>
            <g
               transform="matrix(0.14,0,0,-0.14,32.08,59.777132)"
               id="g95"
               style="stroke-linecap:butt;stroke-linejoin:round">
              <use
                 transform="scale(0.996264)"
                 xlink:href="#CMR17-50"
                 id="use91"
                 style="stroke-linecap:butt;stroke-linejoin:round"
                 x="0"
                 y="0"
                 width="100%"
                 height="100%" />
              <use
                 transform="matrix(0.996264,0,0,0.996264,45.690477,0)"
                 xlink:href="#CMR17-48"
                 id="use93"
                 style="stroke-linecap:butt;stroke-linejoin:round"
                 x="0"
                 y="0"
                 width="100%"
                 height="100%" />
            </g>
          </g>
        </g>
        <g
           id="text_7"
           style="stroke-linecap:butt;stroke-linejoin:round">
          <!-- $E$, GHz -->
          <defs
             id="defs104">
            <path
               d="m 69.5,23.265625 c 0.09375,0.296875 0.40625,1 0.40625,1.390625 0,0.515625 -0.40625,1.015625 -1,1.015625 C 68.5,25.671875 68.296875,25.5625 68,25.265625 67.796875,25.171875 67.796875,24.96875 66.90625,22.953125 61,8.90625 56.703125,2.890625 40.703125,2.890625 H 26.09375 c -1.390625,0 -1.59375,0 -2.1875,0.109375 -1.109375,0.09375 -1.203125,0.296875 -1.203125,1.09375 0,0.703125 0.203125,1.3125 0.390625,2.203125 L 30,34 h 9.90625 c 7.796875,0 8.390625,-1.71875 8.390625,-4.71875 0,-1 0,-1.90625 -0.703125,-4.921875 -0.1875,-0.390625 -0.296875,-0.796875 -0.296875,-1.09375 0,-0.703125 0.5,-1.015625 1.109375,-1.015625 0.890625,0 1,0.703125 1.390625,2.109375 L 55.5,47.4375 c 0,0.5 -0.40625,0.984375 -1,0.984375 -0.90625,0 -1,-0.390625 -1.40625,-1.765625 -2,-7.59375 -4,-9.765625 -12.890625,-9.765625 h -9.5 l 6.203125,24.25 c 0.890625,3.453125 1.09375,3.75 5.1875,3.75 h 14.3125 c 12.296875,0 14.796875,-3.25 14.796875,-10.75 0,-0.09375 0,-2.859375 -0.40625,-6.109375 -0.09375,-0.390625 -0.203125,-0.984375 -0.203125,-1.1875 0,-0.78125 0.5,-1.078125 1.109375,-1.078125 0.703125,0 1.09375,0.390625 1.296875,2.171875 l 2.09375,17.25 c 0,0.296875 0.203125,1.296875 0.203125,1.5 0,1.109375 -0.890625,1.109375 -2.703125,1.109375 H 23.796875 c -1.890625,0 -2.890625,0 -2.890625,-1.8125 0,-1.09375 0.6875,-1.09375 2.390625,-1.09375 6.203125,0 6.203125,-0.6875 6.203125,-1.78125 0,-0.484375 -0.09375,-0.875 -0.40625,-1.96875 L 15.59375,7.40625 C 14.703125,3.890625 14.5,2.890625 7.5,2.890625 c -1.90625,0 -2.90625,0 -2.90625,-1.796875 C 4.59375,0 5.203125,0 7.203125,0 H 57.40625 c 2.1875,0 2.296875,0.09375 3,1.6875 z"
               id="CMMI12-69"
               inkscape:connector-curvature="0"
               style="stroke-linecap:butt;stroke-linejoin:round" />
            <path
               d="M 15.796875,1.59375 C 16,0.6875 16,0.390625 16,-1.1875 c 0,-5.859375 -2,-11.234375 -6.203125,-16.125 -0.5,-0.5 -0.5,-0.6875 -0.5,-0.890625 0,-0.40625 0.40625,-0.796875 0.796875,-0.796875 0.609375,0 7.5,6.875 7.5,17.71875 C 17.59375,2 17.203125,8.1875 12.5,8.1875 10.296875,8.1875 8.40625,6.6875 8.40625,4.09375 8.40625,1.5 10.296875,0 12.5,0 13.703125,0 15,0.5 15.796875,1.59375 Z"
               id="CMR17-44"
               inkscape:connector-curvature="0"
               style="stroke-linecap:butt;stroke-linejoin:round" />
            <path
               d="m 62.09375,19.65625 c 0,3.828125 0.3125,4.34375 6.5,4.34375 v 2.59375 c -2.390625,-0.203125 -7.796875,-0.203125 -10.5,-0.203125 C 55.296875,26.390625 47.5,26.5 43.703125,26.59375 V 24 h 3 C 55.296875,24 55.5,22.875 55.5,19.25 v -6.65625 c 0,-11.09375 -13,-12 -16.09375,-12 -10.3125,0 -27.203125,7.15625 -27.203125,33.453125 0,26.296875 16.59375,33.34375 26.296875,33.34375 11.296875,0 19.5,-9.875 21.40625,-23.875 0.1875,-1.203125 0.1875,-1.40625 1.09375,-1.40625 1.09375,0 1.09375,0.203125 1.09375,2.015625 v 23.859375 c 0,1.8125 -0.09375,1.90625 -0.6875,1.90625 -0.40625,0 -0.5,-0.09375 -1.203125,-1.296875 l -4.40625,-8.453125 C 50.90625,66.390625 44.90625,70 37.203125,70 20.09375,70 4.59375,54.796875 4.59375,34.046875 4.59375,13.40625 19.796875,-2 37.40625,-2 c 8.09375,0 16,2.890625 19.09375,8.640625 1.703125,-4.125 4.5,-6.953125 5,-6.953125 0.5,0 0.59375,0.109375 0.59375,1.90625 z"
               id="CMR17-71"
               inkscape:connector-curvature="0"
               style="stroke-linecap:butt;stroke-linejoin:round" />
            <path
               d="m 56.09375,60.90625 c 0,4.484375 1.109375,4.484375 8,4.484375 V 68 c -2.890625,-0.203125 -8.1875,-0.203125 -11.296875,-0.203125 -3.09375,0 -8.390625,0 -11.296875,0.203125 v -2.609375 c 6.90625,0 8,0 8,-4.484375 V 36.59375 H 19.703125 v 24.3125 c 0,4.484375 1.09375,4.484375 8,4.484375 V 68 C 24.796875,67.796875 19.5,67.796875 16.40625,67.796875 c -3.109375,0 -8.40625,0 -11.3125,0.203125 v -2.609375 c 6.90625,0 8,0 8,-4.484375 V 7.0625 c 0,-4.46875 -1.09375,-4.46875 -8,-4.46875 V 0 C 8,0.1875 13.296875,0.1875 16.40625,0.1875 c 3.09375,0 8.390625,0 11.296875,-0.1875 v 2.59375 c -6.90625,0 -8,0 -8,4.46875 V 34 H 49.5 V 7.0625 c 0,-4.46875 -1.09375,-4.46875 -8,-4.46875 V 0 c 2.90625,0.1875 8.203125,0.1875 11.296875,0.1875 3.109375,0 8.40625,0 11.296875,-0.1875 v 2.59375 c -6.890625,0 -8,0 -8,4.46875 z"
               id="CMR17-72"
               inkscape:connector-curvature="0"
               style="stroke-linecap:butt;stroke-linejoin:round" />
            <path
               d="m 36.09375,40.6875 c 0.8125,1 0.8125,1.203125 0.8125,1.40625 C 36.90625,43 36.5,43 34.703125,43 H 4.296875 l -1,-15.5 H 5.09375 c 0.703125,9.6875 1.8125,13.890625 13.3125,13.890625 h 12.1875 L 2,1.5 C 2,0.09375 2.09375,0 4.203125,0 h 31.59375 l 1.40625,18 H 35.40625 C 34.59375,6.890625 33.296875,1.796875 21.09375,1.796875 H 8.296875 Z"
               id="CMR17-122"
               inkscape:connector-curvature="0"
               style="stroke-linecap:butt;stroke-linejoin:round" />
          </defs>
          <g
             transform="matrix(0,-0.14,-0.14,0,25.367972,97.208278)"
             id="g116"
             style="stroke-linecap:butt;stroke-linejoin:round">
            <use
               transform="scale(0.996264)"
               xlink:href="#CMMI12-69"
               id="use106"
               style="stroke-linecap:butt;stroke-linejoin:round"
               x="0"
               y="0"
               width="100%"
               height="100%" />
            <use
               transform="matrix(0.996264,0,0,0.996264,78.051636,0)"
               xlink:href="#CMR17-44"
               id="use108"
               style="stroke-linecap:butt;stroke-linejoin:round"
               x="0"
               y="0"
               width="100%"
               height="100%" />
            <use
               transform="matrix(0.996264,0,0,0.996264,132.99866,0)"
               xlink:href="#CMR17-71"
               id="use110"
               style="stroke-linecap:butt;stroke-linejoin:round"
               x="0"
               y="0"
               width="100%"
               height="100%" />
            <use
               transform="matrix(0.996264,0,0,0.996264,205.35401,0)"
               xlink:href="#CMR17-72"
               id="use112"
               style="stroke-linecap:butt;stroke-linejoin:round"
               x="0"
               y="0"
               width="100%"
               height="100%" />
            <use
               transform="matrix(0.996264,0,0,0.996264,274.42644,0)"
               xlink:href="#CMR17-122"
               id="use114"
               style="stroke-linecap:butt;stroke-linejoin:round"
               x="0"
               y="0"
               width="100%"
               height="100%" />
          </g>
        </g>
      </g>
      <g
         id="line2d_6"
         style="stroke-linecap:butt;stroke-linejoin:round">
        <path
           clip-path="url(#p0dea3dd6b7)"
           d="m 52.736977,102.74871 3.264346,3.73605 3.264345,3.38397 3.264345,3.03187 3.264346,2.67979 3.264345,2.3277 3.264345,1.9756 3.264346,1.62352 3.264345,1.27143 2.17623,0.65202 2.17623,0.49553 2.176231,0.33905 2.17623,0.18257 2.17623,0.0261 2.17623,-0.13041 2.176231,-0.28688 2.17623,-0.44337 2.17623,-0.59986 2.176228,-0.75634 3.26435,-1.42791 3.26434,-1.78001 3.26435,-2.13209 3.26434,-2.48418 3.26435,-2.83627 3.26434,-3.18836 3.26435,-3.54045 1.08812,-1.25839 1.08811,-0.42816 3.26434,3.69694 3.26435,3.34484 3.26435,2.99275 3.26434,2.64067 3.26435,2.28857 3.26434,1.93649 3.26435,1.5844 3.26434,1.23231 2.17623,0.62594 2.17623,0.46945 2.17623,0.31297 2.17623,0.15648 h 2.17623 l 2.17623,-0.15648 2.17623,-0.31297 2.17623,-0.46945 2.17623,-0.62594 3.26435,-1.23231 3.26434,-1.5844 3.26435,-1.93649 3.26435,-2.28857 3.26434,-2.64067 3.26435,-2.99275 3.26434,-3.34484 3.26435,-3.69694 1.08811,0.42816 3.26435,3.65781 3.26434,3.30572 3.26435,2.95364 3.26434,2.60154 3.26435,2.24946 3.26434,1.89736 3.26435,1.54528 3.26434,1.19319 2.17623,0.59986 2.17624,0.44337 2.17623,0.28688 2.17623,0.13041 2.17623,-0.0261 2.17623,-0.18257 2.17623,-0.33905 2.17623,-0.49553 2.17623,-0.65202 3.26434,-1.27143 3.26435,-1.62352 3.26434,-1.9756 3.26435,-2.3277 3.26434,-2.67979 3.26435,-3.03187 3.26435,-3.38397 3.26434,-3.73605 v 0"
           style="fill:none;stroke:#000000;stroke-width:1.5;stroke-linecap:butt;stroke-linejoin:round;stroke-dasharray:5.55, 2.4;stroke-dashoffset:0"
           id="path120"
           inkscape:connector-curvature="0" />
      </g>
      <g
         id="line2d_7"
         style="stroke-linecap:butt;stroke-linejoin:round">
        <path
           clip-path="url(#p0dea3dd6b7)"
           d="m 52.736977,102.74871 3.264346,-4.088141 3.264345,-4.44023 3.264345,-4.792319 3.264346,-5.144407 3.264345,-5.496496 3.264345,-5.848585 4.352461,-8.345806 4.35246,-8.971742 4.352461,-9.597678 3.264345,-7.609028 1.088115,0.862835 4.352461,10.014968 4.35246,9.389032 4.352458,8.763097 4.35246,8.137161 3.26435,5.692101 3.26434,5.340012 3.26435,4.987923 3.26434,4.635835 3.26435,4.283748 1.08812,1.34967 1.08811,0.4412 3.26434,-4.127263 3.26435,-4.479351 3.26435,-4.83144 3.26434,-5.183528 3.26435,-5.535617 3.26434,-5.887705 4.35246,-8.397968 4.35246,-9.023903 4.35246,-9.649839 3.26435,-7.648149 4.35246,10.11929 4.35246,9.493355 4.35246,8.867419 4.35246,8.241484 3.26435,5.770343 3.26434,5.418254 3.26435,5.066165 3.26434,4.714077 3.26435,4.361988 2.17623,2.712388 1.08811,-0.4412 3.26435,-4.166382 3.26434,-4.518472 3.26435,-4.87056 3.26434,-5.222649 3.26435,-5.574738 3.26434,-5.926827 4.35246,-8.450129 4.35246,-9.076064 4.35247,-9.702 2.17623,-5.085726 1.08811,-0.862835 4.35246,10.067129 4.35246,9.441194 4.35246,8.815258 4.35246,8.189322 3.26435,5.731222 3.26434,5.379133 3.26435,5.027045 3.26434,4.674955 3.26435,4.322864 2.17623,2.68631 v 0"
           style="fill:none;stroke:#000000;stroke-width:1.5;stroke-linecap:butt;stroke-linejoin:round;stroke-dasharray:5.55, 2.4;stroke-dashoffset:0"
           id="path123"
           inkscape:connector-curvature="0" />
      </g>
      <g
         id="line2d_8"
         style="stroke-linecap:butt;stroke-linejoin:round">
        <path
           clip-path="url(#p0dea3dd6b7)"
           d="m 74.397185,-1 3.36644,9.508472 4.35246,11.73629 4.352461,11.110355 2.17623,5.320452 1.088115,-0.875875 4.352461,-10.849549 4.35246,-11.475484 L 102.79027,1.373242 103.61711,-1 m 43.32217,0 3.72806,10.510403 4.35246,11.684129 4.35246,11.058194 2.17623,5.294371 4.35246,-10.745226 L 170.25341,15.43071 174.60587,3.433613 176.1577,-1 m 43.32216,0 4.09119,11.507988 4.35246,11.631968 4.35246,11.006032 1.08812,2.653706 1.08811,0.875875 4.35246,-10.797388 4.35246,-11.423322 L 247.50958,2.405601 248.69979,-1 v 0"
           style="fill:none;stroke:#000000;stroke-width:1.5;stroke-linecap:butt;stroke-linejoin:round;stroke-dasharray:5.55, 2.4;stroke-dashoffset:0"
           id="path126"
           inkscape:connector-curvature="0" />
      </g>
      <g
         id="line2d_9"
         style="stroke-linecap:butt;stroke-linejoin:round">
        <path
           clip-path="url(#p0dea3dd6b7)"
           d="m 52.736977,109.97078 1.088115,0.10265 1.088115,0.29589 1.088116,0.45824 2.17623,1.25128 3.264345,2.25995 5.440576,3.76415 3.264345,1.98921 3.264345,1.71086 3.264346,1.40595 3.264345,1.08661 3.264345,0.75917 3.264346,0.42719 2.17623,0.0992 2.17623,-0.0496 3.264346,-0.35304 3.264345,-0.68569 3.264343,-1.0144 3.26435,-1.33594 3.26434,-1.64484 3.26435,-1.93066 3.26434,-2.17147 6.52869,-4.54735 2.17624,-1.189 1.08811,-0.40827 1.08812,-0.23418 1.08811,-0.0344 1.08811,0.16954 1.08812,0.35405 2.17623,1.1188 3.26435,2.19645 5.44057,3.80644 3.26435,2.04528 3.26434,1.77564 3.26435,1.47525 3.26434,1.15844 3.26435,0.83243 3.26434,0.50122 3.26435,0.16735 2.17623,-0.0744 3.26434,-0.39012 3.26435,-0.72246 3.26434,-1.05055 3.26435,-1.37102 3.26435,-1.678 3.26434,-1.96022 4.35246,-2.96143 5.44058,-3.7503 2.17623,-1.1188 1.08811,-0.35405 1.08812,-0.16954 1.08811,0.0344 1.08812,0.23418 1.08811,0.40827 2.17623,1.189 3.26435,2.23148 5.44057,3.78702 3.26435,2.01758 3.26434,1.74343 3.26435,1.44068 3.26434,1.12259 3.26435,0.79582 3.26435,0.46422 2.17623,0.12397 2.17623,-0.0248 2.17623,-0.17352 3.26434,-0.53819 3.26435,-0.86896 3.26434,-1.1942 3.26435,-1.50961 3.26434,-1.80749 3.26435,-2.07225 5.44057,-3.82203 3.26435,-2.15422 2.17623,-1.04032 1.08811,-0.29589 1.08812,-0.10265 v 0"
           style="fill:none;stroke:#1f77b4;stroke-width:1.5;stroke-linecap:square;stroke-linejoin:round"
           id="path129"
           inkscape:connector-curvature="0" />
      </g>
      <g
         id="line2d_10"
         style="stroke-linecap:butt;stroke-linejoin:round">
        <path
           clip-path="url(#p0dea3dd6b7)"
           d="m 52.736977,96.083317 1.088115,-0.141642 1.088115,-0.412872 1.088116,-0.653212 1.088115,-0.855035 2.17623,-2.174952 2.17623,-2.625817 2.17623,-2.953037 3.264346,-4.904745 3.264345,-5.380497 3.264345,-5.803009 3.264346,-6.198334 3.264345,-6.578267 4.352461,-9.344347 4.35246,-9.852728 1.088115,0.783065 5.440576,12.25599 4.35246,9.127884 3.264343,6.410862 3.26435,6.025035 3.26434,5.619655 3.26435,5.178085 3.26434,4.662244 2.17623,2.745118 2.17623,2.344018 1.08812,0.96884 1.08812,0.79207 1.08811,0.577238 1.08812,0.325175 1.08811,0.04737 1.08811,-0.234523 1.08812,-0.497035 1.08811,-0.724825 1.08812,-0.913887 2.17623,-2.262221 2.17623,-2.686974 2.17623,-2.999992 3.26435,-4.961668 3.26434,-5.429402 3.26435,-5.847981 3.26434,-6.24117 3.26435,-6.619804 4.35246,-9.397962 3.26434,-7.436442 1.08812,-2.08111 1.08811,2.08111 4.35246,9.845943 4.35246,9.236478 3.26435,6.494825 3.26434,6.112098 3.26435,5.712074 3.26435,5.280761 3.26434,4.786738 2.17623,2.853516 2.17623,2.493124 2.17623,1.981946 1.08812,0.724825 1.08811,0.497035 1.08812,0.234523 1.08811,-0.04737 1.08812,-0.325175 1.08811,-0.577238 1.08812,-0.79207 2.17623,-2.0817 2.17623,-2.56132 2.17623,-2.904276 3.26434,-4.846478 3.26435,-5.330967 3.26434,-5.757715 3.26435,-6.155313 3.26434,-6.536609 4.35247,-9.290511 4.35246,-9.872842 1.08811,-0.783065 7.61681,16.921708 4.35246,8.853634 3.26434,6.198334 3.26435,5.803009 3.26434,5.380497 3.26435,4.904745 2.17623,2.953037 2.17623,2.625817 2.17623,2.174952 1.08812,0.855035 1.08811,0.653212 1.08811,0.412872 1.08812,0.141642 v 0"
           style="fill:none;stroke:#ff7f0e;stroke-width:1.5;stroke-linecap:square;stroke-linejoin:round"
           id="path132"
           inkscape:connector-curvature="0" />
      </g>
      <g
         id="line2d_11"
         style="stroke-linecap:butt;stroke-linejoin:round">
        <path
           clip-path="url(#p0dea3dd6b7)"
           d="m 74.478369,-1 3.285256,9.249669 4.35246,11.696963 4.352461,11.050044 2.17623,5.158607 1.088115,-0.796413 3.264345,-7.971029 L 97.349697,16.118454 101.70216,4.209498 103.53524,-1 m 43.48557,0 3.64653,10.248707 4.35246,11.643844 4.35246,10.99339 1.08811,2.624983 1.08812,2.121154 1.08811,-2.121154 3.26435,-8.037292 4.35246,-11.323313 L 174.60587,3.188461 176.07616,-1 m 43.48558,0 4.00931,11.24334 4.35246,11.590661 4.35246,10.935133 1.08812,2.589736 1.08811,0.796413 2.17623,-5.158607 4.35246,-11.050044 L 245.33335,8.249669 248.61861,-1 v 0"
           style="fill:none;stroke:#2ca02c;stroke-width:1.5;stroke-linecap:square;stroke-linejoin:round"
           id="path135"
           inkscape:connector-curvature="0" />
      </g>
      <g
         id="patch_3"
         style="stroke-linecap:butt;stroke-linejoin:round">
        <path
           d="M 52.736977,127.96 V 20.16"
           style="fill:none;stroke:#000000;stroke-width:0.80000001;stroke-linecap:square;stroke-linejoin:miter"
           id="path138"
           inkscape:connector-curvature="0" />
      </g>
      <g
         id="patch_4"
         style="stroke-linecap:butt;stroke-linejoin:round">
        <path
           d="M 270.36,127.96 V 20.16"
           style="fill:none;stroke:#000000;stroke-width:0.80000001;stroke-linecap:square;stroke-linejoin:miter"
           id="path141"
           inkscape:connector-curvature="0" />
      </g>
      <g
         id="patch_5"
         style="stroke-linecap:butt;stroke-linejoin:round">
        <path
           d="M 52.736977,127.96 H 270.36"
           style="fill:none;stroke:#000000;stroke-width:0.80000001;stroke-linecap:square;stroke-linejoin:miter"
           id="path144"
           inkscape:connector-curvature="0" />
      </g>
      <g
         id="patch_6"
         style="stroke-linecap:butt;stroke-linejoin:round">
        <path
           d="M 52.736977,20.16 H 270.36"
           style="fill:none;stroke:#000000;stroke-width:0.80000001;stroke-linecap:square;stroke-linejoin:miter"
           id="path147"
           inkscape:connector-curvature="0" />
      </g>
    </g>
  </g>
  <defs
     id="defs155">
    <clipPath
       id="p0dea3dd6b7"
       style="stroke-linecap:butt;stroke-linejoin:round">
      <rect
         height="107.8"
         width="217.62302"
         x="52.736977"
         y="20.16"
         id="rect152"
         style="stroke-linecap:butt;stroke-linejoin:round" />
    </clipPath>
  </defs>
</svg>
