<?xml version="1.0" encoding="UTF-8" standalone="no"?>
<!-- Created with Inkscape (http://www.inkscape.org/) -->

<svg
   xmlns:dc="http://purl.org/dc/elements/1.1/"
   xmlns:cc="http://creativecommons.org/ns#"
   xmlns:rdf="http://www.w3.org/1999/02/22-rdf-syntax-ns#"
   xmlns:svg="http://www.w3.org/2000/svg"
   xmlns="http://www.w3.org/2000/svg"
   xmlns:sodipodi="http://sodipodi.sourceforge.net/DTD/sodipodi-0.dtd"
   xmlns:inkscape="http://www.inkscape.org/namespaces/inkscape"
   version="1.1"
   id="svg2"
   xml:space="preserve"
   width="191.80473"
   height="107.46944"
   viewBox="0 0 191.80473 107.46943"
   sodipodi:docname="my_sign.svg"
   inkscape:version="0.92.1 r15371"><metadata
     id="metadata8"><rdf:RDF><cc:Work
         rdf:about=""><dc:format>image/svg+xml</dc:format><dc:type
           rdf:resource="http://purl.org/dc/dcmitype/StillImage" /><dc:title></dc:title></cc:Work></rdf:RDF></metadata><defs
     id="defs6"><clipPath
       clipPathUnits="userSpaceOnUse"
       id="clipPath4562"><g
         id="use4564"
         inkscape:label="Clip"><rect
           style="opacity:1;fill:#0000ff;fill-opacity:1;stroke:#0000ff;stroke-width:2.83464575;stroke-miterlimit:4;stroke-dasharray:none;stroke-dashoffset:0;stroke-opacity:1"
           id="rect4566"
           width="181.64256"
           height="108.48097"
           x="277.50946"
           y="-416.26416"
           transform="scale(1,-1)" /></g></clipPath></defs><sodipodi:namedview
     pagecolor="#ffffff"
     bordercolor="#666666"
     borderopacity="1"
     objecttolerance="10"
     gridtolerance="10"
     guidetolerance="10"
     inkscape:pageopacity="0"
     inkscape:pageshadow="2"
     inkscape:window-width="1920"
     inkscape:window-height="1017"
     id="namedview4"
     showgrid="false"
     fit-margin-top="0"
     fit-margin-left="0"
     fit-margin-right="0"
     fit-margin-bottom="0"
     inkscape:zoom="0.84085505"
     inkscape:cx="-287.78824"
     inkscape:cy="-22.695344"
     inkscape:window-x="-8"
     inkscape:window-y="-8"
     inkscape:window-maximized="1"
     inkscape:current-layer="g10" /><g
     id="g10"
     inkscape:groupmode="layer"
     inkscape:label="my_sign"
     transform="matrix(1.3333333,0,0,-1.3333333,-401.08564,535.19947)"><path
       style="fill:#000000;stroke-width:0.99999994"
       d="m 392.78842,321.28587 c -0.3727,0.69637 -0.16224,1.74386 0.73994,3.68285 0.41985,0.90239 1.13254,2.44412 1.58372,3.42609 0.45121,0.98197 0.9456,2.05322 1.09864,2.38054 0.15307,0.32732 0.78203,1.4607 1.39771,2.51861 0.61568,1.05791 1.19146,2.21052 1.27951,2.56133 0.088,0.35082 0.26196,0.70081 0.38646,0.77775 0.1245,0.0769 0.32661,0.37053 0.44916,0.65239 0.26031,0.59875 0.75632,1.41332 0.9644,1.58374 0.17216,0.14103 0.92591,1.58482 0.92591,1.77357 0,0.27738 -1.69937,0.094 -5.59426,-0.60368 -2.2258,-0.39869 -4.63609,-0.82119 -5.3562,-0.93886 -0.72012,-0.11767 -2.15665,-0.43204 -3.1923,-0.69859 -1.03563,-0.26657 -2.13213,-0.48465 -2.43662,-0.48465 -0.6437,0 -2.55553,-0.43014 -3.41712,-0.7688 -0.32732,-0.12866 -1.45213,-0.37679 -2.49956,-0.5514 -1.04744,-0.17461 -2.54718,-0.52838 -3.33275,-0.7862 -0.78558,-0.25781 -2.44601,-0.63053 -3.68984,-0.82828 -1.24383,-0.19775 -2.69,-0.46992 -3.21372,-0.6048 -2.05635,-0.52962 -6.27902,-1.42968 -7.9748,-1.69982 -0.98197,-0.15643 -2.06168,-0.38605 -2.39939,-0.51027 -0.3377,-0.12421 -1.48878,-0.31404 -2.558,-0.42183 -1.06922,-0.10779 -2.0784,-0.30066 -2.24266,-0.42861 -0.3716,-0.28948 -3.02013,-0.81772 -3.28359,-0.65489 -0.10643,0.0658 -0.65674,-0.0324 -1.22288,-0.21822 -0.56614,-0.1858 -1.67209,-0.39684 -2.45767,-0.46897 -0.78557,-0.0721 -1.96394,-0.24917 -2.61859,-0.39343 -0.65464,-0.14424 -1.99369,-0.35425 -2.97567,-0.46663 -0.98197,-0.11241 -2.80308,-0.38848 -4.04691,-0.61352 -1.24383,-0.225 -3.22562,-0.48543 -4.40399,-0.57873 -1.17836,-0.0933 -2.30719,-0.24215 -2.50851,-0.33084 -0.40981,-0.18054 -0.65886,-0.21509 -5.34726,-0.7419 -4.16986,-0.46854 -12.08224,-1.05831 -12.31494,-0.91791 -0.0958,0.0578 -1.5533,0.31049 -3.23886,0.56155 -6.95895,1.03639 -8.99705,2.49358 -8.36473,5.98062 0.39648,2.18635 1.06469,3.22769 3.72187,5.79996 1.082,1.04743 2.17186,2.06511 2.42191,2.26151 0.70038,0.55012 2.90937,2.454 3.34258,2.88092 0.21285,0.20975 0.57131,0.48006 0.79658,0.60068 0.22527,0.1206 0.86801,0.6527 1.42832,1.18242 0.56031,0.52969 1.36691,1.16627 1.79243,1.41458 0.42552,0.24832 0.77367,0.52831 0.77367,0.62218 0,0.0939 0.20349,0.23527 0.45221,0.31421 0.57149,0.18139 5.59078,3.47565 5.6975,3.73939 0.0437,0.10784 0.21446,0.19608 0.37958,0.19608 0.16511,0 0.61146,0.2677 0.9919,0.59485 0.38041,0.32716 0.76789,0.59497 0.86106,0.59514 0.0932,1.6e-4 1.27154,0.73401 2.61859,1.63078 1.34705,0.89677 2.81889,1.82123 3.27074,2.05433 0.45185,0.23311 0.96835,0.57062 1.14775,0.75004 0.17942,0.17942 0.43316,0.3262 0.5639,0.3262 0.13071,0 0.70476,0.32138 1.27566,0.71417 0.5709,0.39278 1.15261,0.71416 1.29268,0.71416 0.30516,0 0.29571,-0.0925 0.34063,3.33275 0.0339,2.58295 0.50143,5.23718 0.9226,5.23718 0.0999,0 0.1817,0.16366 0.1817,0.36367 0,0.41048 1.53762,3.60873 1.99913,4.15823 0.16547,0.19701 0.60604,0.89217 0.97904,1.54482 0.37301,0.65265 0.87318,1.39592 1.11152,1.65174 0.23834,0.25583 0.43333,0.53566 0.43333,0.62189 0,0.415 5.51473,6.41699 6.56616,7.1463 0.53124,0.3685 2.7549,2.26748 4.02649,3.43861 1.49498,1.37685 3.52069,3.09674 3.90139,3.3124 0.21137,0.11974 0.43788,0.29225 0.50334,0.38338 0.0655,0.0911 0.46718,0.34406 0.8927,0.56207 0.42552,0.21803 0.77368,0.48779 0.77368,0.59949 0,0.11167 0.3108,0.33177 0.69064,0.48913 0.37986,0.15733 0.93414,0.54526 1.23176,0.86206 0.29761,0.3168 0.63303,0.576 0.74537,0.576 0.11231,0 0.96064,0.50884 1.88514,1.13075 2.14963,1.44603 2.87503,1.87967 4.53828,2.71281 0.74494,0.37315 1.4208,0.78582 1.50188,0.91701 0.0811,0.13121 0.32859,0.239 0.54998,0.23955 0.22141,0 0.92955,0.26836 1.57365,0.59514 0.6441,0.32677 1.41673,0.59413 1.71696,0.59413 0.30021,0 1.1333,0.2198 1.85132,0.48844 1.33953,0.50117 2.17184,0.68247 6.09206,1.32696 1.90378,0.31297 2.51567,0.32456 3.86837,0.0732 0.88377,-0.16423 1.60686,-0.38853 1.60686,-0.49846 0,-0.10994 0.25607,-0.19987 0.56907,-0.19987 0.7876,0 3.2471,-2.39746 4.17003,-4.06484 1.43265,-2.58824 1.742,-4.00249 1.65097,-7.54739 -0.079,-3.07718 -0.0662,-3.17669 0.39446,-3.07451 1.28051,0.28399 2.90611,0.72611 3.33275,0.90643 0.53459,0.22596 5.66367,1.39907 8.56993,1.96011 2.56538,0.49523 5.48011,0.87199 6.78453,0.87699 0.58918,0.002 1.49973,0.10613 2.02345,0.23084 1.12085,0.26691 7.08379,0.59102 9.64117,0.52405 1.72853,-0.0453 3.81943,-0.27319 6.78453,-0.73953 2.47319,-0.38898 7.15437,-2.32112 8.46964,-3.49582 0.2067,-0.18461 0.45911,-0.33566 0.56088,-0.33566 0.20484,0 2.11715,-1.4551 2.22766,-1.69503 0.0383,-0.0832 0.49581,-0.61961 1.01663,-1.19206 2.00729,-2.20616 3.02856,-4.23068 3.90477,-7.74064 0.93069,-3.72814 -0.11686,-7.7545 -2.91883,-11.2189 -0.56235,-0.69531 -1.2051,-1.49071 -1.42832,-1.76757 -0.73163,-0.90744 -5.46088,-5.66639 -5.63101,-5.66639 -0.0913,0 -0.79308,-0.64274 -1.55937,-1.42832 -0.7663,-0.78558 -1.48151,-1.42832 -1.58934,-1.42832 -0.10784,0 -0.97976,-0.72309 -1.93764,-1.60687 -1.89974,-1.75281 -4.08241,-3.51679 -6.4349,-5.20054 -0.83102,-0.5948 -1.46943,-1.12299 -1.41866,-1.17377 0.10689,-0.10689 3.96252,0.23541 6.73849,0.59823 1.04744,0.1369 3.02923,0.29583 4.40399,0.35315 1.37476,0.0573 3.32564,0.21523 4.33529,0.35089 1.81516,0.24389 3.23439,0.0373 2.9463,-0.42883 -0.0697,-0.11279 -0.95693,-0.28028 -1.97161,-0.37224 -1.01468,-0.0919 -1.95499,-0.25186 -2.08959,-0.35539 -0.13459,-0.10353 -1.36952,-0.3163 -2.74428,-0.47285 -1.37476,-0.15652 -2.82094,-0.38391 -3.21372,-0.50529 -0.78246,-0.24179 -2.03362,-0.39031 -5.11816,-0.60761 -1.1129,-0.0784 -2.50551,-0.25024 -3.09469,-0.38186 -0.58919,-0.13164 -1.52652,-0.29378 -2.08297,-0.36029 -0.55645,-0.0665 -1.01173,-0.20571 -1.01173,-0.30926 0,-0.10355 -0.29262,-0.26172 -0.65029,-0.35149 -0.35765,-0.0898 -1.0622,-0.58344 -1.56566,-1.09704 -0.50348,-0.5136 -0.99499,-0.93384 -1.09228,-0.93384 -0.0973,0 -0.61489,-0.37493 -1.15028,-0.83319 -0.53536,-0.45825 -1.07329,-0.83318 -1.19541,-0.83318 -0.12209,0 -0.48001,-0.21932 -0.79533,-0.48735 -1.30185,-1.10664 -2.44379,-1.89319 -2.74855,-1.89319 -0.17839,0 -0.32435,-0.13933 -0.32435,-0.30961 0,-0.17028 -0.48858,-0.61844 -1.08573,-0.9959 -0.59716,-0.37746 -1.80231,-1.36024 -2.67811,-2.18395 -0.8758,-0.82371 -1.70241,-1.50038 -1.83691,-1.50367 -0.1345,-0.003 -0.5167,-0.30059 -0.84933,-0.66064 -0.33263,-0.36006 -1.02289,-0.97602 -1.53392,-1.36881 -2.31103,-1.77631 -4.24217,-4.24604 -5.53573,-7.07967 -0.2235,-0.48965 -0.56811,-0.89137 -0.76574,-0.8927 -0.19764,-0.002 -0.49313,-0.21668 -0.65665,-0.47853 -0.38703,-0.61971 -0.92124,-0.6059 -1.26299,0.0327 z m -71.99375,7.33359 c 0.91651,0.12622 3.05899,0.33385 4.76107,0.46145 1.70209,0.12757 3.25539,0.29292 3.45178,0.36746 1.04075,0.39486 5.03648,1.08957 6.29164,1.09388 0.79481,0.003 2.14141,0.17018 2.99245,0.3721 0.85104,0.20192 2.83284,0.5175 4.40399,0.70133 3.49818,0.40926 4.87803,0.63379 8.66965,1.41061 1.62598,0.33313 3.25962,0.6057 3.63032,0.6057 0.37067,0 0.67396,0.10713 0.67396,0.23806 0,0.13093 0.29459,0.23881 0.65464,0.23974 1.0995,0.003 4.80121,0.64962 7.43918,1.29987 1.37476,0.33887 3.24943,0.78058 4.16594,0.98156 0.9165,0.20099 2.52336,0.56874 3.5708,0.81722 1.04744,0.24846 2.54717,0.51891 3.33275,0.60101 0.78558,0.0821 2.01751,0.36442 2.73762,0.62742 0.72011,0.26297 1.89848,0.5708 2.61859,0.68404 0.72011,0.11327 2.05916,0.37708 2.97567,0.58628 0.9165,0.2092 2.41624,0.48787 3.33275,0.61925 0.9165,0.13141 2.25556,0.38708 2.97567,0.56814 0.72011,0.18109 2.27341,0.44945 3.45178,0.59635 1.17836,0.1469 2.63618,0.42409 3.23957,0.61601 0.6034,0.19192 1.99601,0.44802 3.0947,0.56914 4.09557,0.45147 4.05327,0.43461 4.85425,1.93361 0.39278,0.73509 0.83111,1.48496 0.97404,1.66638 0.14295,0.18142 0.44928,0.8119 0.68076,1.40109 0.23149,0.58918 0.47416,1.20514 0.53926,1.3688 0.20221,0.5083 -0.9883,0.33892 -1.36783,-0.1946 -0.53105,-0.74649 -3.74849,-2.26966 -5.1933,-2.45857 -0.69983,-0.0915 -1.74917,-0.0948 -2.33193,-0.007 -1.40782,0.2111 -2.22801,1.3305 -2.22801,3.04082 v 1.16239 l -0.57967,-0.37981 c -0.31882,-0.20889 -0.83464,-0.62292 -1.14625,-0.92008 -0.31161,-0.29714 -0.88099,-0.78177 -1.26525,-1.07698 -0.38427,-0.29518 -1.03551,-0.80402 -1.4472,-1.13075 -0.41169,-0.32671 -0.83007,-0.59404 -0.92974,-0.59404 -0.0997,0 -0.5127,-0.25 -0.91784,-0.55557 -1.72534,-1.30125 -2.90431,-1.82509 -4.09031,-1.8174 -0.64313,0.004 -1.34034,0.13807 -1.54935,0.29757 -0.75665,0.57742 -1.16734,1.77902 -1.16734,3.41547 0,1.52774 0.11795,2.1093 0.85935,4.23691 0.35053,1.00592 0.28476,1.30536 -0.19895,0.90586 -0.45082,-0.37231 -4.97693,-2.91204 -5.18964,-2.91204 -0.10079,0 -0.64945,-0.26652 -1.21926,-0.59227 -2.27974,-1.30325 -4.9956,-0.43678 -5.33183,1.70108 -0.25343,1.61134 0.28659,3.33289 1.39231,4.4386 l 0.52295,0.52296 -0.67569,0.0774 c -0.37955,0.0434 -0.85728,-0.087 -1.09,-0.29757 -0.22784,-0.20622 -0.62008,-0.37648 -0.87163,-0.37841 -0.57878,-0.004 -2.24925,-0.58287 -3.44569,-1.19324 -0.50634,-0.25831 -1.19605,-0.46966 -1.53268,-0.46966 -0.33666,0 -0.67529,-0.16464 -0.75251,-0.36589 -0.0772,-0.20122 -0.422,-0.51386 -0.7662,-0.69471 -0.34418,-0.18087 -0.96947,-0.68574 -1.38954,-1.12195 -0.42007,-0.43623 -1.76274,-1.8108 -2.98372,-3.05463 -1.22098,-1.24383 -2.53618,-2.69 -2.92266,-3.21372 -0.3865,-0.52372 -1.15951,-1.42304 -1.71784,-1.99849 -0.55833,-0.57544 -1.01515,-1.10276 -1.01515,-1.17179 0,-0.0691 -0.53562,-0.74135 -1.19027,-1.49403 -0.65465,-0.75265 -1.19132,-1.45726 -1.19258,-1.56579 -0.002,-0.10856 -0.3762,-0.6677 -0.83319,-1.24257 -0.45699,-0.57488 -0.83088,-1.13728 -0.83088,-1.24978 0,-0.11251 -0.1703,-0.20456 -0.37843,-0.20456 -0.20813,0 -0.55628,-0.21373 -0.77367,-0.47494 -0.62858,-0.75535 -1.46649,-0.39827 -1.46649,0.62496 0,0.44475 0.0994,0.99466 0.22087,1.22202 0.12148,0.22734 0.39646,1.00254 0.61106,1.72265 0.402,1.34891 0.99911,2.66628 3.60482,7.95319 0.83302,1.6902 1.5146,3.17394 1.5146,3.2972 0,0.12858 -0.48213,0.16369 -1.13076,0.0824 -0.62191,-0.078 -2.04131,-0.19085 -3.15421,-0.25087 -3.31037,-0.17854 -4.99236,-0.57032 -5.29441,-1.23323 -0.1415,-0.31052 -0.39295,-0.56459 -0.55883,-0.56459 -0.16587,0 -0.51227,-0.26781 -0.76972,-0.59514 -0.25748,-0.32732 -0.61635,-0.59513 -0.79746,-0.59513 -0.18113,0 -0.59463,-0.29459 -0.91891,-0.65465 -0.66391,-0.73718 -1.09581,-1.05865 -3.39143,-2.52434 -0.88741,-0.5666 -1.89893,-1.37474 -2.2478,-1.79586 -0.34889,-0.42111 -1.31272,-1.2399 -2.14188,-1.81951 -1.63705,-1.1444 -1.67378,-1.1723 -2.97153,-2.25765 -0.7353,-0.61499 -1.04927,-0.72452 -1.9,-0.66294 -0.87609,0.0634 -1.05237,0.16876 -1.25578,0.7504 -0.19761,0.56502 -0.12581,0.87918 0.43521,1.90442 0.36953,0.67529 1.03579,1.92926 1.4806,2.78661 0.4448,0.85733 1.19038,1.92857 1.65687,2.38054 0.74178,0.71866 0.99499,0.81957 2.01896,0.80448 0.74149,-0.0109 1.3326,-0.16369 1.61205,-0.4166 0.79643,-0.72075 1.6136,-0.48672 3.99759,1.14492 0.38012,0.26017 0.83078,0.6064 1.00144,0.76942 0.17066,0.16299 0.87578,0.67171 1.56692,1.13046 1.46726,0.97393 2.15384,1.67157 1.95758,1.98911 -0.0768,0.12433 -0.5369,0.30059 -1.02239,0.39167 -0.48546,0.0911 -1.14385,0.37103 -1.46305,0.6221 -0.31921,0.2511 -0.68022,0.45654 -0.80222,0.45654 -0.80745,0 -3.33166,2.84534 -3.65022,4.11459 -0.20387,0.81222 -0.7253,0.82729 -1.77702,0.0513 -0.44366,-0.32732 -0.89273,-0.59513 -0.99792,-0.59513 -0.10517,0 -0.70033,-0.36284 -1.32256,-0.80631 -0.62222,-0.44347 -1.50942,-1.00652 -1.9716,-1.25119 -0.46216,-0.2447 -1.09834,-0.68528 -1.41369,-0.97911 -0.31537,-0.29381 -0.75853,-0.5342 -0.98478,-0.5342 -0.22627,0 -0.44708,-0.0892 -0.49074,-0.19827 -0.0436,-0.10905 -0.66853,-0.5884 -1.38864,-1.06524 -0.72011,-0.47683 -1.8732,-1.2446 -2.56239,-1.70616 -0.68921,-0.46154 -1.33195,-0.8393 -1.42832,-0.83947 -0.0964,-1.7e-4 -0.48648,-0.26798 -0.86689,-0.59513 -0.38044,-0.32716 -0.77139,-0.59485 -0.8688,-0.59485 -0.39774,0 -4.13073,-2.72286 -6.17628,-4.505 -0.45826,-0.39924 -1.15659,-0.96833 -1.55183,-1.26466 -1.27218,-0.95376 -1.58393,-1.23281 -5.28043,-4.72634 -1.20298,-1.13692 -1.75376,-1.82532 -2.36892,-2.96077 -0.72771,-1.34317 -1.06338,-2.70936 -0.79086,-3.2186 0.4503,-0.84138 2.41408,-1.68147 4.75486,-2.0341 1.24383,-0.18737 2.58288,-0.44345 2.97567,-0.56904 0.82923,-0.26517 7.54637,-0.11682 9.99825,0.22082 z m 79.88439,3.64372 c 0.37467,0.2946 1.1189,0.857 1.65383,1.24979 0.53491,0.39278 1.5293,1.21048 2.20976,1.81706 1.76524,1.5737 2.48985,2.13989 3.99289,3.1201 0.73009,0.4761 1.47144,1.03917 1.64743,1.25123 0.17602,0.21208 0.67669,0.53462 1.11264,0.71676 0.43595,0.18215 0.79262,0.44378 0.79262,0.58139 0,0.1376 0.11146,0.2502 0.2477,0.2502 0.34475,0 1.65673,0.99478 1.65673,1.25618 0,0.23913 -1.98801,0.10658 -4.16594,-0.27776 -0.78557,-0.13864 -1.96394,-0.31166 -2.61859,-0.38448 -1.27473,-0.14185 -2.49956,-0.54428 -2.49956,-0.82126 0,-0.0933 -0.4285,-0.63372 -0.95221,-1.201 -0.52372,-0.56728 -0.95222,-1.26483 -0.95222,-1.55007 0,-0.28523 -0.21439,-0.71263 -0.47639,-0.94976 -0.26203,-0.23712 -0.75849,-1.03037 -1.10324,-1.76278 -0.34477,-0.7324 -0.69278,-1.38522 -0.77339,-1.45068 -0.20329,-0.16514 -0.97973,-1.86941 -0.97973,-2.15055 0,-0.38339 0.48856,-0.25974 1.20767,0.30563 z m -47.39007,12.3906 c 0.58918,0.64336 1.68587,1.80904 2.43707,2.5904 0.7512,0.78139 1.55104,1.73422 1.77741,2.11742 0.22634,0.38317 0.57585,0.75515 0.77665,0.82659 0.41583,0.14795 1.97984,2.02394 1.82032,2.18343 -0.0576,0.0576 -0.78351,-0.0783 -1.61317,-0.30199 -0.82964,-0.22368 -1.80304,-0.45866 -2.1631,-0.52217 -0.39786,-0.0702 -0.65626,-0.26829 -0.65876,-0.50506 -0.002,-0.21427 -0.27008,-0.64184 -0.59514,-0.95019 -0.32506,-0.30833 -0.59168,-0.73682 -0.59249,-0.95221 0,-0.21537 -0.14524,-0.65941 -0.32097,-0.98674 -0.17573,-0.32732 -0.56109,-1.05093 -0.85637,-1.60805 -0.29528,-0.55709 -0.63289,-1.07226 -0.75027,-1.1448 -0.11736,-0.0725 -0.2134,-0.34318 -0.2134,-0.60142 0,-0.25824 -0.16068,-0.53119 -0.35708,-0.60656 -0.19639,-0.0754 -0.35708,-0.34613 -0.35708,-0.6017 0,-0.60947 0.32397,-0.40279 1.66638,1.06305 z m 56.59713,-0.42783 c 4.22923,0.22251 8.6282,0.92839 8.63173,1.38512 0.002,0.15437 0.34141,0.54849 0.75605,0.87582 0.41462,0.32732 0.88806,0.72904 1.05206,0.8927 0.16402,0.16366 0.42561,0.29757 0.58135,0.29757 0.24496,0 0.8344,0.42814 2.37056,1.72179 0.19701,0.16592 1.42554,1.15865 2.73005,2.20609 1.30453,1.04744 3.01214,2.52039 3.79474,3.27324 0.78258,0.75284 1.50062,1.36881 1.59562,1.36881 0.25284,0 2.35283,2.14148 2.35283,2.39931 0,0.1206 0.132,0.21928 0.29335,0.21928 0.46609,0 5.00706,4.82799 6.28324,6.68035 2.24158,3.25372 2.70757,4.50848 2.70738,7.29051 -1.4e-4,2.04303 -0.36348,3.24853 -1.8132,6.01597 -0.90977,1.73672 -4.528,5.72296 -5.19462,5.72296 -0.20444,0 -0.37172,0.0993 -0.37172,0.22077 0,0.1214 -0.61596,0.50053 -1.36881,0.84245 -0.75284,0.34194 -1.56791,0.73282 -1.81125,0.86865 -0.24337,0.13581 -1.0468,0.44811 -1.78541,0.69395 -0.73863,0.24586 -1.79004,0.60928 -2.33649,0.8076 -0.83109,0.30159 -4.55644,0.55466 -9.71887,0.66022 -2.79887,0.0572 -9.51079,-0.54943 -12.37879,-1.11885 -0.91651,-0.18197 -2.57693,-0.45504 -3.68983,-0.60683 -1.1129,-0.15176 -2.71977,-0.46863 -3.57081,-0.70411 -0.85104,-0.23551 -2.37922,-0.61199 -3.39595,-0.83664 -1.01673,-0.22468 -1.90681,-0.5027 -1.97799,-0.61785 -0.0711,-0.11514 -0.41766,-0.20884 -0.76998,-0.2082 -0.35235,0 -1.14716,-0.18037 -1.76627,-0.40226 -1.11566,-0.39986 -1.13968,-0.43135 -2.70476,-3.54367 -0.86852,-1.72712 -1.83494,-3.41609 -2.14758,-3.75327 -0.31266,-0.33718 -0.56847,-0.71354 -0.56847,-0.83633 0,-0.12279 -0.32137,-0.5673 -0.71416,-0.98778 -0.39279,-0.42047 -0.71416,-0.82459 -0.71416,-0.89803 0,-0.0734 -0.25177,-0.41026 -0.55945,-0.74851 -1.75881,-1.93331 -4.84149,-5.16762 -6.7607,-7.09324 -1.2111,-1.21512 -2.202,-2.31676 -2.202,-2.44805 0,-0.13131 -0.1339,-0.23862 -0.29756,-0.2385 -0.28702,0 -0.99564,-0.65903 -4.15054,-3.86171 -2.1446,-2.17707 -2.50297,-2.59781 -2.34618,-2.75459 0.0774,-0.0774 0.49381,-0.0131 0.92533,0.14295 0.43155,0.15605 0.98364,0.28371 1.22691,0.28371 0.42264,0 1.53106,0.30597 2.6767,0.73888 1.02277,0.38648 4.83675,0.76991 5.09449,0.51217 0.38755,-0.38755 -0.64568,-1.17456 -1.73363,-1.32049 -1.20117,-0.16109 -1.33348,-0.29371 -0.83859,-0.84054 0.5729,-0.63306 0.49232,-1.02561 -0.37839,-1.84358 -1.22697,-1.15268 -1.54273,-1.59796 -1.71805,-2.42291 -0.14626,-0.68826 -0.0941,-0.7991 0.47834,-1.01675 0.76463,-0.29071 1.97559,0.0517 3.12827,0.8846 0.41678,0.30114 0.96473,0.54755 1.21766,0.54755 0.25294,0 0.72954,0.21211 1.05913,0.47135 0.32956,0.25924 0.87565,0.57645 1.21352,0.7049 0.33787,0.12848 1.88125,1.08974 3.42971,2.13615 2.06957,1.39856 2.95534,2.15155 3.34363,2.84241 0.29052,0.51691 1.01928,1.48602 1.61948,2.15357 1.24545,1.38524 2.17093,1.61003 2.81906,0.68469 0.54866,-0.78334 0.4817,-0.96752 -0.81358,-2.23765 -0.65129,-0.63863 -1.18691,-1.26459 -1.19026,-1.39105 -0.003,-0.12643 -0.46923,-0.71561 -1.03525,-1.30929 -1.03632,-1.08695 -3.01778,-4.00456 -3.01778,-4.44356 0,-0.12993 -0.22394,-0.69973 -0.49763,-1.2662 -0.79079,-1.63679 -1.00466,-4.18204 -0.38555,-4.58844 0.41069,-0.26957 1.33669,-0.01 2.36592,0.66336 0.48817,0.31935 0.9879,0.58064 1.11052,0.58064 0.12262,0 0.47306,0.21443 0.77877,0.47653 0.30573,0.2621 1.41284,1.15387 2.46028,1.9817 1.04744,0.82783 2.76142,2.3265 3.80886,3.33035 1.04743,1.00387 1.98477,1.82608 2.08297,1.82716 0.0982,0 0.17854,0.11724 0.17854,0.25812 0,0.40043 2.15241,3.19006 3.5658,4.62145 0.77668,0.78658 1.59856,0.77986 1.96116,-0.016 0.21532,-0.47251 0.2138,-0.70514 -0.007,-1.01173 -0.1574,-0.21893 -0.35843,-0.55878 -0.44675,-0.75517 -0.0883,-0.1964 -0.39031,-0.57133 -0.67115,-0.83319 -0.9271,-0.86449 -2.25996,-2.66106 -2.25996,-3.04621 0,-0.20822 -0.18746,-0.51986 -0.41659,-0.69254 -0.62323,-0.46968 -0.95019,-1.17182 -1.27261,-2.73288 -0.31445,-1.52238 -0.18018,-2.5646 0.35694,-2.77071 0.52169,-0.20018 2.90296,0.60656 5.14112,1.74172 1.1129,0.56445 2.40675,1.21791 2.87519,1.45208 0.46846,0.2342 0.99042,0.5929 1.15991,0.79712 0.1695,0.20423 0.43283,0.37132 0.58521,0.37132 0.52786,0 2.26537,1.78745 2.42977,2.49956 0.0907,0.39279 0.23577,0.76773 0.32244,0.83319 0.0867,0.0655 0.52548,0.74632 0.97507,1.513 0.44961,0.7667 1.08529,1.84903 1.41261,2.40517 0.32732,0.55614 0.88972,1.35646 1.24978,1.7785 0.36006,0.42202 0.65465,0.84602 0.65465,0.94222 0,0.0962 0.19087,0.38255 0.42416,0.63636 0.23332,0.25381 0.68591,0.88999 1.00578,1.41371 0.66157,1.08316 3.38555,4.7006 4.21069,5.59183 0.30183,0.32599 0.54876,0.65774 0.54876,0.73725 0,0.0795 0.18747,0.36653 0.4166,0.63784 0.22912,0.27129 0.79152,0.94836 1.24978,1.50457 1.86186,2.25987 4.05595,4.02632 5.00103,4.02632 1.25785,0 1.42641,-0.18585 1.42641,-1.57282 0,-1.16401 -0.24195,-1.61722 -0.57539,-1.07769 -0.32857,0.53162 -1.51017,-0.1957 -3.57138,-2.19831 -1.23057,-1.19557 -2.37128,-2.43955 -2.53489,-2.76437 -0.16364,-0.32485 -0.54831,-0.78789 -0.85483,-1.02901 -0.30654,-0.2411 -0.55733,-0.5913 -0.55733,-0.7782 0,-0.18689 -0.10508,-0.3398 -0.23351,-0.3398 -0.12845,0 -0.2982,-0.25769 -0.37724,-0.57263 -0.0791,-0.31497 -0.34837,-0.62616 -0.59847,-0.69157 -0.25012,-0.0654 -0.51569,-0.31654 -0.59015,-0.55812 -0.30526,-0.99014 -0.91406,-1.98653 -1.21379,-1.98653 -0.17578,0 -0.31959,-0.20194 -0.31959,-0.44876 0,-0.24681 -0.48206,-1.03432 -1.07124,-1.74998 -0.58918,-0.71568 -1.07124,-1.46653 -1.07124,-1.66856 0,-0.20202 -0.32642,-0.71674 -0.72537,-1.14383 -1.06508,-1.14016 -0.71655,-1.62312 0.41883,-0.58035 0.49591,0.45547 0.99837,0.82864 1.11656,0.82926 0.29326,0.002 5.26465,5.07211 5.45229,5.56108 0.18994,0.495 0.8793,0.51436 0.8793,0.0247 0,-0.48606 -0.72012,-1.4944 -2.71312,-3.79921 -1.5828,-1.8304 -1.92252,-2.16739 -3.23822,-3.21197 -0.32733,-0.25988 -1.06836,-0.85518 -1.64676,-1.32291 -0.5784,-0.4677 -1.35505,-1.00727 -1.72589,-1.19905 -0.37084,-0.19178 -0.67426,-0.5066 -0.67426,-0.69964 0,-0.19304 -0.0999,-0.35096 -0.22201,-0.35096 -0.1221,0 -0.28214,-0.18747 -0.35566,-0.4166 -0.0735,-0.22912 -0.40209,-0.72784 -0.7302,-1.10825 -0.32811,-0.38044 -0.59656,-0.82793 -0.59656,-0.99447 0,-0.16652 -0.24782,-0.49801 -0.55069,-0.73664 -0.30288,-0.23862 -0.84866,-0.94271 -1.21289,-1.56463 -0.36422,-0.62191 -0.75915,-1.13075 -0.87763,-1.13075 -0.1185,0 -0.21544,-0.22139 -0.21544,-0.49199 0,-0.27059 -0.25607,-0.833 -0.56906,-1.24978 -0.313,-0.41678 -0.64642,-1.12204 -0.74092,-1.5672 -0.1456,-0.68567 -0.1132,-0.78691 0.21184,-0.66217 0.21106,0.081 1.53538,0.20782 2.94294,0.28188 z m -57.72631,8.81022 c 2.1476,0.31697 2.50222,0.43766 2.9729,1.01173 0.29395,0.35851 0.53532,0.75896 0.53639,0.88989 0,0.13093 0.42975,0.8808 0.95264,1.66638 0.52288,0.78557 0.95105,1.55846 0.95145,1.71751 0,0.15906 0.21501,0.40385 0.47687,0.544 0.26186,0.14014 0.47611,0.35341 0.47611,0.47391 0,0.12051 0.26781,0.61375 0.59513,1.09607 0.63337,0.93332 0.88106,1.97071 0.29757,1.24626 -0.16366,-0.2032 -0.83319,-0.72299 -1.48784,-1.15511 -0.65464,-0.43211 -1.74298,-1.25047 -2.4185,-1.81854 -0.67553,-0.56806 -1.2972,-1.03286 -1.38152,-1.03286 -0.29364,0 -3.58592,-2.69789 -4.4637,-3.65784 -0.62422,-0.68264 -0.79914,-1.02075 -0.59513,-1.15039 0.37836,-0.24044 0.27524,-0.24608 3.08763,0.16899 z m -6.48854,0.35427 c 0.30193,0.26186 0.65194,0.47611 0.77777,0.47611 0.12586,0 0.84709,0.53562 1.60277,1.19027 0.75568,0.65465 1.45465,1.19027 1.55328,1.19027 0.0986,0 0.85042,0.58918 1.67063,1.30929 0.82022,0.72011 1.55506,1.3093 1.63298,1.3093 0.0779,0 0.55752,0.40354 1.06576,0.89677 0.50825,0.49324 1.22819,1.05565 1.59989,1.24978 0.7,0.36563 0.77489,0.42116 2.35668,1.74755 0.52372,0.43916 1.42454,1.09379 2.0018,1.45475 0.57728,0.36093 1.64066,1.23335 2.36308,1.93866 0.72243,0.70533 1.42847,1.28265 1.56902,1.28292 0.28414,0 3.25207,3.64945 3.52107,4.32893 0.094,0.23741 0.26329,0.43164 0.37624,0.43164 0.11294,0 0.5451,0.47306 0.96031,1.05127 0.41524,0.57818 1.12971,1.43713 1.58772,1.90876 0.458,0.47161 0.83274,0.949 0.83274,1.06086 0,0.35101 -2.90404,-0.58749 -4.58189,-1.48074 -0.88344,-0.4703 -2.02522,-0.9679 -2.53727,-1.10578 -0.51208,-0.13788 -1.18189,-0.51518 -1.48848,-0.83843 -0.30659,-0.32325 -0.80969,-0.58956 -1.11804,-0.59182 -0.30833,-0.002 -1.0368,-0.32549 -1.61879,-0.71828 -0.58199,-0.39279 -1.11668,-0.71416 -1.1882,-0.71416 -0.2461,0 -5.20316,-2.46119 -5.83421,-2.89669 -0.34754,-0.23984 -0.7897,-0.43606 -0.98257,-0.43606 -0.19289,0 -0.4808,-0.15676 -0.63979,-0.34835 -0.159,-0.19158 -1.3237,-0.90398 -2.58824,-1.5831 -1.26452,-0.67912 -2.35268,-1.31137 -2.41815,-1.40499 -0.0655,-0.0936 -0.36955,-0.24844 -0.67576,-0.34406 -0.61589,-0.19233 -3.27538,-1.70254 -3.86599,-2.19533 -0.2067,-0.17245 -0.54174,-0.31357 -0.74454,-0.31357 -0.20277,0 -0.51203,-0.17271 -0.68721,-0.38376 -0.17516,-0.21109 -0.86766,-0.63496 -1.53883,-0.94198 -1.92492,-0.88049 -1.96461,-1.01071 -0.89534,-2.93863 0.96873,-1.74665 2.4649,-3.09939 3.46599,-3.13374 0.29573,-0.0102 1.07331,-0.2161 1.72796,-0.45766 1.55891,-0.57523 2.07435,-0.57523 2.73761,0 z m 14.45555,1.17549 c 1.0181,0.25372 2.1356,0.52105 2.4833,0.59404 0.58485,0.12276 2.59164,1.99229 6.17873,5.75604 1.43246,1.50302 2.75604,2.71074 2.97079,2.71074 0.14157,0 6.4912,6.49508 8.81541,9.01735 0.76968,0.83526 1.74755,1.84587 2.17307,2.2458 0.42552,0.39993 0.77368,0.82662 0.77368,0.94824 0,0.18956 1.28382,2.03188 2.52203,3.61917 0.45521,0.58357 1.16785,1.95523 1.39136,2.67811 0.14687,0.47503 0.083,0.53562 -0.5646,0.53562 -0.40162,0 -0.7302,-0.0963 -0.7302,-0.21408 0,-0.11775 -0.45528,-0.26393 -1.01173,-0.32488 -1.30403,-0.14278 -4.23943,-1.39285 -4.56734,-1.94506 -0.13929,-0.23453 -0.65496,-0.83864 -1.14595,-1.34246 -0.49098,-0.50379 -0.8927,-0.96192 -0.8927,-1.01801 0,-0.25672 -2.95329,-3.01128 -3.2285,-3.01128 -0.17062,0 -0.37406,-0.20111 -0.45207,-0.4469 -0.078,-0.24579 -0.74258,-0.84578 -1.47686,-1.33331 -1.31279,-0.87166 -6.77132,-6.20066 -7.93442,-7.74617 -0.32671,-0.43414 -0.94267,-1.14835 -1.36881,-1.58715 -0.42612,-0.43881 -0.77477,-0.86133 -0.77477,-0.93898 0,-0.0777 -0.4285,-0.65296 -0.95221,-1.27849 -0.52372,-0.62554 -0.95222,-1.2086 -0.95222,-1.29573 0,-0.0871 -0.32087,-0.50077 -0.71306,-0.91917 -0.39217,-0.41843 -0.71355,-0.93701 -0.71416,-1.15237 0,-0.21539 -0.26705,-0.64389 -0.59212,-0.95222 -0.32506,-0.30835 -0.59287,-0.66964 -0.59513,-0.80293 -0.002,-0.13326 -0.27193,-0.63641 -0.59925,-1.11811 -0.32733,-0.4817 -0.59514,-0.93508 -0.59514,-1.00747 0,-0.22886 0.64703,-0.14531 2.55287,0.32966 z m -22.43034,6.68492 c 0.39279,0.24529 1.24978,0.75402 1.90443,1.13052 0.65464,0.37651 1.61071,0.92655 2.1246,1.22233 0.51389,0.29579 1.53157,0.92251 2.26151,1.39271 0.72994,0.47023 2.07704,1.22615 2.99355,1.67983 0.9165,0.45368 1.82706,0.91691 2.02345,1.02939 0.1964,0.1125 0.83914,0.45861 1.42833,0.76915 0.58918,0.31054 1.5533,0.84678 2.14248,1.19167 0.58918,0.3449 2.2496,1.21322 3.68983,1.92962 1.44022,0.7164 3.39369,1.73379 4.34105,2.26087 0.94736,0.52707 1.90136,0.95833 2.12001,0.95833 0.21865,0 0.74868,0.26781 1.17782,0.59513 0.42914,0.32733 0.95164,0.59514 1.16113,0.59514 0.20949,0 0.90939,0.26781 1.55532,0.59513 0.64594,0.32732 1.31727,0.59513 1.49184,0.59513 0.17454,0 0.43368,0.11632 0.57582,0.25846 0.29993,0.29992 3.66072,1.82028 4.72951,2.13953 0.42602,0.12726 1.80518,1.27885 3.33275,2.7828 1.43327,1.41116 3.44414,3.19151 4.46858,3.95633 1.02444,0.76484 1.91968,1.5393 1.98941,1.72101 0.0697,0.18171 0.24922,0.33277 0.39888,0.33568 0.14964,0.003 0.53991,0.21479 0.86723,0.47082 0.76249,0.59642 1.21181,0.59418 1.85953,-0.009 0.7479,-0.69674 0.65234,-1.17182 -0.49072,-2.4402 -1.71958,-1.90809 -2.37951,-2.7877 -2.09151,-2.7877 0.15202,0 0.99277,0.22653 1.86836,0.50339 0.87558,0.27686 1.85977,0.5739 2.18709,0.66008 1.05956,0.27897 1.49846,1.65737 1.52455,4.78787 0.0181,2.16322 -0.0714,2.97486 -0.42614,3.86837 -0.24691,0.62192 -0.5415,1.13076 -0.65465,1.13076 -0.11312,0 -0.20813,0.18747 -0.21108,0.41659 -0.007,0.57804 -1.41616,2.77863 -2.13711,3.33847 -0.32732,0.25417 -0.99685,0.58449 -1.48783,0.73406 -0.49099,0.14957 -1.24845,0.37907 -1.68328,0.51 -1.13949,0.34311 -3.39038,0.27829 -5.04174,-0.14519 -0.78557,-0.20146 -1.69613,-0.39828 -2.02345,-0.43739 -0.32732,-0.0391 -1.07719,-0.23427 -1.66638,-0.43371 -0.58918,-0.19942 -1.49371,-0.43602 -2.01007,-0.52579 -0.51637,-0.0898 -1.3198,-0.35432 -1.78541,-0.58792 -0.4656,-0.23363 -1.38218,-0.69281 -2.03683,-1.02045 -0.65465,-0.32763 -1.48288,-0.66493 -1.84056,-0.74953 -0.35765,-0.0846 -1.0004,-0.46087 -1.42832,-0.83619 -0.4279,-0.37529 -1.33039,-0.98971 -2.00548,-1.36535 -0.67512,-0.37565 -2.04415,-1.24541 -3.04228,-1.93279 -0.99816,-0.68738 -1.87234,-1.24978 -1.94264,-1.24978 -0.0703,0 -0.52229,-0.29459 -1.00442,-0.65464 -0.48213,-0.36006 -1.01994,-0.76178 -1.19512,-0.89271 -0.53657,-0.40104 -1.97159,-1.63047 -2.70915,-2.32102 -0.38457,-0.36005 -0.78215,-0.65465 -0.88351,-0.65465 -0.16352,0 -1.5807,-1.2523 -3.36972,-2.97769 -0.33825,-0.3262 -0.73997,-0.59311 -0.8927,-0.59311 -0.15276,0 -0.27774,-0.0905 -0.27774,-0.20108 0,-0.1106 -0.54835,-0.72657 -1.21857,-1.36881 -0.67022,-0.64225 -1.3933,-1.36819 -1.60686,-1.6132 -0.21356,-0.24498 -0.78727,-0.82207 -1.2749,-1.28237 -0.48763,-0.4603 -0.83885,-0.91415 -0.78053,-1.00856 0.0583,-0.0944 -0.31944,-0.74925 -0.83957,-1.45524 -0.5201,-0.70598 -1.13299,-1.54883 -1.36195,-1.87301 -0.22896,-0.32421 -0.65734,-0.81855 -0.95193,-1.09855 -0.29459,-0.28002 -0.53562,-0.65988 -0.53562,-0.84416 0,-0.18428 -0.30461,-0.70761 -0.6769,-1.16299 -0.63656,-0.77853 -0.96241,-1.5866 -1.1139,-2.76225 -0.0359,-0.27833 -0.20413,-0.76039 -0.37394,-1.07124 -0.41426,-0.75839 -0.87037,-3.7084 -0.74261,-4.80292 0.11798,-1.01057 0.4763,-1.10017 1.59806,-0.3997 z m 37.84359,15.93979 c 0.9127,0.90515 1.59487,1.71029 1.51593,1.78923 -0.36213,0.36213 -1.3395,-0.22991 -1.93592,-1.17263 -0.35835,-0.5664 -0.93232,-1.31062 -1.27552,-1.65382 -0.38376,-0.38377 -0.49694,-0.62102 -0.29397,-0.61625 0.18152,0.004 1.07679,0.74832 1.98948,1.65347 z m 5.12489,5.59907 c 0.47773,0.89263 0.14319,0.95728 -0.69806,0.13493 -0.73207,-0.71562 -0.73561,-0.72971 -0.18338,-0.72971 0.35694,0 0.67967,0.21777 0.88144,0.59478 z"
       id="path4544"
       inkscape:connector-curvature="0"
       sodipodi:nodetypes="ccccsccccscccscccscscscccccccscccccccccccsccsccsccscscsscccscccccsccscccccscccssccccccccccsccccsscscccscsccccccccsccscscsscsccscccccccccsccssccccscccccccccccccccscccccscccsscsccccccccscccsccscccsscscccscccscsccccccccscccccccccsccscccscccscscccccccccccccccsssccscscccsccccccccccccccscscccccscccssscscssccccccccccccccscsccsccccsssccccccsccsccccccscccscsccscccccsccccccscccscscccsccssccccsscccsscsccccscccsssccsccsscccccccccccsccccsccccssscssccccccsccsccscsscscccccscccccccccscssccsscccssccccscscccccscccccccccccscscsccccccsccsccccsccccccccccccccscccscssccsccccscccccccsccccccsc" /></g></svg>